<svg xmlns="http://www.w3.org/2000/svg" xmlns:xlink="http://www.w3.org/1999/xlink" width="2000" zoomAndPan="magnify" viewBox="0 0 1500 1499.999933" height="2000" preserveAspectRatio="xMidYMid meet" version="1.0"><rect x="-150" width="1800" fill="#06070B" y="-149.999993" height="1799.99992" fill-opacity="1"/><rect x="-150" width="1800" fill="#06070B" y="-149.999993" height="1799.99992" fill-opacity="1"/><path fill="#ffffff" d="M 1486.480469 2.101562 C 1493.945312 2.101562 1500 8.15625 1500 15.625 C 1500 23.089844 1493.945312 29.144531 1486.480469 29.144531 L 29.214844 29.144531 L 66.683594 1361.980469 C 66.886719 1369.417969 61.019531 1375.617188 53.582031 1375.824219 C 46.148438 1376.027344 39.945312 1370.160156 39.742188 1362.722656 L 1.832031 15.625 C 1.832031 8.15625 7.886719 2.101562 15.351562 2.101562 Z M 1486.480469 2.101562 " fill-opacity="1" fill-rule="nonzero"/><path fill="#ffffff" d="M 751.457031 1144.183594 C 755.449219 1150.453125 753.601562 1158.78125 747.332031 1162.777344 C 741.066406 1166.773438 732.734375 1164.921875 728.742188 1158.65625 L 3.996094 22.859375 C 0 16.589844 1.847656 8.257812 8.117188 4.265625 C 12.351562 1.570312 17.523438 1.535156 21.667969 3.726562 L 21.6875 3.6875 L 1454.957031 766.292969 C 1461.546875 769.789062 1464.050781 777.972656 1460.554688 784.566406 C 1457.058594 791.160156 1448.875 793.664062 1442.28125 790.167969 L 54.328125 51.667969 Z M 751.457031 1144.183594 " fill-opacity="1" fill-rule="nonzero"/><path fill="#ffffff" d="M 1195.882812 8.28125 C 1199.9375 2.042969 1208.289062 0.265625 1214.527344 4.320312 C 1220.765625 8.375 1222.542969 16.726562 1218.488281 22.964844 C 1172.996094 93.167969 1143.40625 176.691406 1128.726562 272.652344 C 1113.945312 369.292969 1114.292969 478.46875 1128.746094 599.316406 C 1129.621094 606.722656 1124.324219 613.441406 1116.917969 614.316406 C 1115.605469 614.46875 1114.316406 614.429688 1113.070312 614.222656 C 952.378906 590.296875 831.261719 605.683594 748.5 659.152344 C 666.691406 712.011719 621.746094 803.148438 612.503906 931.300781 C 611.980469 938.734375 605.519531 944.34375 598.082031 943.820312 C 596.402344 943.699219 594.808594 943.277344 593.363281 942.605469 C 451.3125 879.929688 343.148438 878.726562 258.3125 919.808594 C 173.085938 961.078125 110.140625 1045.421875 59.371094 1153.25 C 56.191406 1159.988281 48.148438 1162.871094 41.410156 1159.695312 C 34.675781 1156.515625 31.789062 1148.472656 34.96875 1141.734375 C 88.203125 1028.675781 154.992188 939.859375 246.582031 895.507812 C 334.964844 852.714844 445.3125 851.675781 587.191406 910.59375 C 600.078125 783.316406 648.613281 691.550781 733.917969 636.433594 C 819.292969 581.28125 940.933594 563.769531 1099.925781 585.078125 C 1087.183594 468.707031 1087.570312 362.976562 1102 268.640625 C 1117.246094 168.960938 1148.191406 81.875 1195.882812 8.28125 Z M 1195.882812 8.28125 " fill-opacity="1" fill-rule="nonzero"/><path fill="#ffffff" d="M 48.894531 899.511719 C 43.351562 904.46875 34.839844 903.996094 29.882812 898.457031 C 24.925781 892.914062 25.398438 884.402344 30.9375 879.445312 C 83.054688 832.894531 136.421875 787.488281 207.265625 758.378906 C 276.65625 729.863281 362.03125 717.332031 477.84375 735.277344 C 542.523438 647.234375 607.363281 583.816406 672.3125 539.804688 C 735.210938 497.179688 798.109375 472.808594 860.988281 461.964844 C 854.191406 382.824219 856.425781 306.289062 868.671875 232.660156 C 881.59375 154.972656 905.695312 80.46875 942.097656 9.496094 C 945.476562 2.875 953.59375 0.253906 960.214844 3.636719 C 966.832031 7.015625 969.453125 15.132812 966.074219 21.75 C 931.015625 90.105469 907.78125 162.007812 895.289062 237.097656 C 882.8125 312.097656 881.058594 390.265625 888.902344 471.265625 L 888.925781 471.421875 C 889.976562 478.804688 884.84375 485.640625 877.460938 486.6875 C 814.191406 495.792969 750.839844 519.121094 687.421875 562.09375 C 623.464844 605.433594 559.273438 668.832031 494.816406 757.816406 C 491.910156 761.800781 486.917969 764.046875 481.722656 763.203125 C 367.28125 744.289062 284.25 755.882812 217.511719 783.308594 C 150.597656 810.804688 99.191406 854.582031 48.894531 899.511719 Z M 48.894531 899.511719 " fill-opacity="1" fill-rule="nonzero"/><path fill="#ffffff" d="M 764.195312 7.171875 C 768.855469 1.371094 777.347656 0.449219 783.152344 5.113281 C 788.957031 9.777344 789.878906 18.269531 785.214844 24.074219 C 745.457031 73.53125 717.527344 126.289062 698.113281 181.398438 C 678.601562 236.792969 667.660156 294.582031 661.964844 353.800781 C 661.425781 359.507812 657.398438 364.042969 652.191406 365.507812 C 597.296875 380.9375 546.929688 405.851562 501.011719 440.03125 C 454.941406 474.324219 413.230469 518.042969 375.800781 570.976562 C 372.246094 576.035156 365.835938 577.902344 360.273438 575.941406 C 292.785156 552.097656 233.332031 546.867188 180.742188 557.457031 C 128.453125 567.988281 82.507812 594.304688 41.800781 633.609375 C 36.433594 638.769531 27.894531 638.601562 22.734375 633.238281 C 17.570312 627.871094 17.738281 619.332031 23.101562 614.171875 C 67.421875 571.378906 117.785156 542.664062 175.460938 531.046875 C 230.277344 520.007812 291.328125 524.515625 359.648438 547.195312 C 397.1875 495.644531 438.929688 452.632812 484.957031 418.382812 C 531.078125 384.042969 581.421875 358.558594 636.058594 342.117188 C 642.195312 283.921875 653.402344 227.085938 672.652344 172.421875 C 693.019531 114.613281 722.371094 59.207031 764.195312 7.171875 Z M 764.195312 7.171875 " fill-opacity="1" fill-rule="nonzero"/><path fill="#ffffff" d="M 36.644531 477.21875 C 30.902344 481.972656 22.382812 481.171875 17.628906 475.425781 C 12.878906 469.683594 13.679688 461.164062 19.421875 456.410156 C 53.703125 427.992188 91.457031 408.070312 132.972656 397.421875 C 171.300781 387.585938 212.65625 385.75 257.25 392.507812 C 277.246094 348.835938 304.140625 316.570312 335.644531 291.953125 C 366.691406 267.699219 401.988281 251.082031 439.445312 238.375 C 441.480469 194.488281 448.40625 153.335938 461.425781 115.632812 C 475.535156 74.78125 496.742188 38.058594 526.527344 6.382812 C 531.628906 0.957031 540.167969 0.695312 545.59375 5.796875 C 551.019531 10.898438 551.28125 19.4375 546.179688 24.863281 C 519.058594 53.703125 499.746094 87.15625 486.882812 124.398438 C 473.90625 161.976562 467.414062 203.535156 466.035156 248.234375 C 466.039062 253.941406 462.390625 259.246094 456.667969 261.082031 C 418.566406 273.292969 382.851562 289.261719 352.226562 313.1875 C 321.914062 336.871094 296.296875 368.621094 277.875 412.6875 C 275.480469 418.398438 269.378906 421.90625 263.035156 420.769531 C 218.269531 412.71875 177.21875 413.863281 139.625 423.507812 C 102.222656 433.105469 67.972656 451.246094 36.644531 477.21875 Z M 36.644531 477.21875 " fill-opacity="1" fill-rule="nonzero"/><path fill="#ffffff" d="M 379.804688 3.898438 C 386.277344 0.222656 394.507812 2.492188 398.183594 8.964844 C 401.859375 15.441406 399.589844 23.671875 393.117188 27.347656 C 361.394531 45.304688 341.4375 66.527344 330.078125 90.121094 C 318.730469 113.691406 315.753906 140.171875 318.046875 168.460938 C 318.609375 175.667969 313.398438 182.015625 306.296875 182.917969 C 270.320312 189.734375 243.589844 200.617188 223.496094 214.382812 C 203.839844 227.847656 190.417969 244.285156 180.761719 262.480469 C 177.496094 268.628906 170.15625 271.222656 163.832031 268.699219 C 140.828125 261.015625 118.417969 259.824219 96.46875 263.585938 C 73.882812 267.453125 51.550781 276.589844 29.421875 289.277344 C 22.949219 292.980469 14.691406 290.734375 10.992188 284.261719 C 7.289062 277.789062 9.535156 269.53125 16.007812 265.832031 C 40.703125 251.664062 65.9375 241.417969 91.929688 236.96875 C 114.945312 233.03125 138.410156 233.652344 162.433594 240.105469 C 173.472656 222.183594 188.136719 205.890625 208.285156 192.089844 C 229.148438 177.792969 255.835938 166.304688 290.421875 158.644531 C 289.496094 130.296875 293.78125 103.316406 305.777344 78.390625 C 319.441406 50.007812 342.914062 24.785156 379.804688 3.898438 Z M 379.804688 3.898438 " fill-opacity="1" fill-rule="nonzero"/></svg>