<svg xmlns="http://www.w3.org/2000/svg" viewBox="0 0 200 200" fill="none" stroke="currentColor" stroke-width="4" stroke-linecap="round" stroke-linejoin="round">
  <!-- Radial threads from top-left corner -->
  <line x1="0" y1="0" x2="0" y2="200"/>
  <line x1="0" y1="0" x2="50" y2="200"/>
  <line x1="0" y1="0" x2="120" y2="180"/>
  <line x1="0" y1="0" x2="180" y2="120"/>
  <line x1="0" y1="0" x2="200" y2="50"/>
  <line x1="0" y1="0" x2="200" y2="0"/>
  <!-- Concentric arcs -->
  <path d="M 0,30 Q 15,15 30,0"/>
  <path d="M 0,65 Q 22,40 40,30 Q 55,20 65,0"/>
  <path d="M 0,105 Q 30,75 55,58 Q 78,42 95,30 Q 105,20 105,0"/>
  <path d="M 0,155 Q 40,115 75,88 Q 105,65 135,48 Q 155,32 155,0"/>
  <path d="M 10,200 Q 55,155 100,120 Q 140,90 170,65 Q 195,42 200,0"/>
  <path d="M 65,200 Q 100,170 135,145 Q 170,118 195,90 Q 200,80 200,45"/>
</svg>
